# xmcd CD database file
#
# Track frame offsets:
#	150
#	15112
#	31682
#	44162
#	64290
#	81077
#	96007
#	114027
#	130542
#	140477
#	160785
#	173030
#	191670
#	207487
#
# Disc length: 2894 seconds
#
# Revision: 5
# Processed by: cddbd v1.5.2PL0 Copyright (c) Steve Scherf et al.
# Submitted via: CDex 1.51
#
DISCID=ae0b4c0e
DTITLE=Champion Jack Dupree - From New Orleans To Chicago
DYEAR=1900
DGENRE=Blues
TTITLE0=Third Degree
TTITLE1=T.V. Mama
TTITLE2=He Knows The Rules
TTITLE3=Ain't It A Shame
TTITLE4=Ooh La-La
TTITLE5=(going Down To) Big Leg Emma's
TTITLE6=Won't Be A Fool No More
TTITLE7=Take It Slow And Easy
TTITLE8=She's All In My Life
TTITLE9=Poor Poor Me
TTITLE10=Pigfoot And A Bottle Of Beer
TTITLE11=Down The Valley
TTITLE12=Too Early In The Morning
TTITLE13=Shim-Sham-Shimmy
EXTD=
EXTT0=
EXTT1=
EXTT2=
EXTT3=
EXTT4=
EXTT5=
EXTT6=
EXTT7=
EXTT8=
EXTT9=
EXTT10=
EXTT11=
EXTT12=
EXTT13=
PLAYORDER=
